<svg xmlns="http://www.w3.org/2000/svg" version="1.1" xmlns:xlink="http://www.w3.org/1999/xlink" viewBox="0 0 200 200" width="200" height="200"><metadata><rdf:RDF xmlns:rdf="http://www.w3.org/1999/02/22-rdf-syntax-ns#" xmlns:dc="http://purl.org/dc/elements/1.1/"><rdf:Description><dc:creator>RealFaviconGenerator</dc:creator><dc:source>https://realfavicongenerator.net</dc:source></rdf:Description></rdf:RDF></metadata><rect width="200" height="200" fill="url('#gradient')"></rect><defs><linearGradient id="gradient" gradientTransform="rotate(45 0.5 0.5)"><stop offset="0%" stop-color="#dee90b"></stop><stop offset="100%" stop-color="#42e37d"></stop></linearGradient></defs><g><g fill="#1b3855" transform="matrix(4.11336755188574,0,0,4.11336755188574,4.612532700260047,129.24541870958703)" stroke="#42e37d" stroke-width="0.55"><path d="M4.73-14.22L4.73 0L1.31 0L1.31-14.22L4.73-14.22ZM12.72-4.82L10.54-4.82L10.54 0L7.11 0L7.11-14.22L12.78-14.22Q14.41-14.22 15.67-13.62Q16.92-13.02 17.61-11.91Q18.30-10.80 18.30-9.39L18.30-9.39Q18.30-7.31 16.81-6.07Q15.32-4.82 12.72-4.82L12.72-4.82ZM10.54-11.57L10.54-7.47L12.78-7.47Q13.78-7.47 14.30-7.97Q14.82-8.47 14.82-9.38L14.82-9.38Q14.82-10.37 14.29-10.97Q13.75-11.56 12.82-11.57L12.82-11.57L10.54-11.57ZM31.29-14.22L31.29-11.57L27.02-11.57L27.02 0L23.59 0L23.59-11.57L19.40-11.57L19.40-14.22L31.29-14.22ZM35.59-14.22L38.41-3.87L41.24-14.22L45.07-14.22L40.28 0L36.53 0L31.79-14.22L35.59-14.22Z"></path></g></g></svg>